<svg xmlns="http://www.w3.org/2000/svg" xmlns:xlink="http://www.w3.org/1999/xlink" width="100" zoomAndPan="magnify" viewBox="0 0 75 30.000001" height="40" preserveAspectRatio="xMidYMid meet" version="1.0"><defs><clipPath id="id1"><path d="M 1.210938 0 L 30.242188 0 L 30.242188 29.03125 L 1.210938 29.03125 Z M 1.210938 0 " clip-rule="nonzero"/></clipPath><clipPath id="id2"><path d="M 30.242188 0 L 59.273438 0 L 59.273438 29.03125 L 30.242188 29.03125 Z M 30.242188 0 " clip-rule="nonzero"/></clipPath><clipPath id="id3"><path d="M 59.273438 0 L 73.789062 0 L 73.789062 29.03125 L 59.273438 29.03125 Z M 59.273438 0 " clip-rule="nonzero"/></clipPath></defs><g clip-path="url(#id1)"><path fill="#000000" d="M 30.050781 9.890625 L 30.21875 9.71875 L 30.050781 9.550781 L 25.4375 4.941406 L 30.21875 0.160156 L 30.050781 -0.0078125 L 25.269531 4.769531 L 20.488281 -0.0078125 L 20.320312 0.160156 L 25.101562 4.941406 L 20.488281 9.550781 L 10.929688 -0.0078125 L 10.761719 0.160156 L 6.148438 4.769531 L 1.367188 -0.0078125 L 1.199219 0.160156 L 5.980469 4.941406 L 1.199219 9.71875 L 1.367188 9.890625 L 6.148438 5.109375 L 10.761719 9.71875 L 1.199219 19.28125 L 5.980469 24.0625 L 1.199219 28.839844 L 1.367188 29.011719 L 6.148438 24.230469 L 10.929688 29.011719 L 11.097656 28.839844 L 6.316406 24.0625 L 10.929688 19.449219 L 20.40625 28.925781 L 20.488281 29.011719 L 25.269531 24.230469 L 30.050781 29.011719 L 30.21875 28.839844 L 25.441406 24.0625 L 30.136719 19.367188 L 30.21875 19.28125 L 30.050781 19.113281 L 25.269531 23.890625 L 20.660156 19.28125 Z M 20.660156 9.71875 L 25.269531 5.109375 L 29.882812 9.71875 L 20.488281 19.109375 L 15.878906 14.5 Z M 6.316406 4.941406 L 10.929688 0.328125 L 20.320312 9.71875 L 15.710938 14.332031 L 10.929688 9.550781 Z M 6.148438 23.890625 L 1.539062 19.28125 L 10.929688 9.890625 L 15.539062 14.5 L 10.929688 19.113281 L 10.761719 19.28125 Z M 20.488281 28.671875 L 11.097656 19.28125 L 15.710938 14.667969 L 20.40625 19.363281 L 20.488281 19.449219 L 25.101562 24.0625 Z M 20.488281 28.671875 " fill-opacity="1" fill-rule="nonzero"/></g><g clip-path="url(#id2)"><path fill="#000000" d="M 59.082031 9.890625 L 59.25 9.71875 L 54.472656 4.941406 L 59.25 0.160156 L 59.082031 -0.0078125 L 54.300781 4.769531 L 49.523438 -0.0078125 L 49.351562 0.160156 L 54.132812 4.941406 L 49.523438 9.550781 L 40.128906 0.160156 L 39.960938 -0.0078125 L 39.792969 0.160156 L 35.179688 4.769531 L 30.402344 -0.0078125 L 30.230469 0.160156 L 35.011719 4.941406 L 30.230469 9.71875 L 30.402344 9.890625 L 35.179688 5.109375 L 39.792969 9.71875 L 30.402344 19.113281 L 30.230469 19.28125 L 30.402344 19.449219 L 35.011719 24.0625 L 30.230469 28.839844 L 30.402344 29.011719 L 35.179688 24.230469 L 39.960938 29.011719 L 40.128906 28.839844 L 35.351562 24.0625 L 39.960938 19.449219 L 49.523438 29.011719 L 54.300781 24.230469 L 59 28.925781 L 59.082031 29.011719 L 59.25 28.839844 L 54.472656 24.0625 L 59.167969 19.367188 L 59.25 19.28125 L 59.082031 19.113281 L 54.300781 23.890625 L 49.691406 19.28125 Z M 49.691406 9.71875 L 54.300781 5.109375 L 58.914062 9.71875 L 49.523438 19.109375 L 44.910156 14.5 L 49.523438 9.890625 Z M 35.351562 4.941406 L 39.960938 0.328125 L 49.351562 9.71875 L 44.742188 14.332031 Z M 35.179688 23.890625 L 30.570312 19.28125 L 39.960938 9.890625 L 44.574219 14.5 L 39.792969 19.28125 Z M 49.523438 28.671875 L 40.128906 19.28125 L 44.742188 14.667969 L 49.4375 19.363281 L 49.519531 19.449219 L 54.132812 24.0625 Z M 49.523438 28.671875 " fill-opacity="1" fill-rule="nonzero"/></g><g clip-path="url(#id3)"><path fill="#000000" d="M 88.117188 9.890625 L 88.285156 9.71875 L 88.117188 9.550781 L 83.503906 4.941406 L 88.285156 0.160156 L 88.117188 -0.0078125 L 83.335938 4.769531 L 78.554688 -0.0078125 L 78.386719 0.160156 L 83.167969 4.941406 L 78.554688 9.550781 L 69.164062 0.160156 L 68.992188 -0.0078125 L 64.214844 4.769531 L 59.433594 -0.0078125 L 59.265625 0.160156 L 64.042969 4.941406 L 59.265625 9.71875 L 59.433594 9.890625 L 64.214844 5.109375 L 68.824219 9.71875 L 59.433594 19.113281 L 59.265625 19.28125 L 59.433594 19.449219 L 64.042969 24.0625 L 59.265625 28.839844 L 59.433594 29.011719 L 64.214844 24.230469 L 68.992188 29.011719 L 69.164062 28.839844 L 64.382812 24.0625 L 68.992188 19.449219 L 78.554688 29.011719 L 83.335938 24.230469 L 88.117188 29.011719 L 88.285156 28.839844 L 83.503906 24.0625 L 88.285156 19.28125 L 88.117188 19.113281 L 83.335938 23.890625 L 78.722656 19.28125 Z M 78.722656 9.71875 L 83.335938 5.109375 L 87.945312 9.71875 L 78.554688 19.109375 L 73.941406 14.5 L 78.554688 9.890625 Z M 64.382812 4.941406 L 68.992188 0.328125 L 78.386719 9.71875 L 73.773438 14.332031 L 69.164062 9.71875 L 68.992188 9.550781 Z M 64.214844 23.890625 L 59.601562 19.28125 L 68.992188 9.890625 L 73.605469 14.5 Z M 78.554688 28.671875 L 69.164062 19.28125 L 73.773438 14.667969 L 78.554688 19.449219 L 83.164062 24.0625 Z M 78.554688 28.671875 " fill-opacity="1" fill-rule="nonzero"/></g></svg>